<?xml version="1.0" encoding="UTF-8"?> <svg xmlns="http://www.w3.org/2000/svg" width="980" height="762" viewBox="0 0 980 762"><g id="Mechanism_of_Web3_Gaming" data-name="Mechanism of Web3 Gaming" transform="translate(-273 -72)"><rect id="Rectangle_9" data-name="Rectangle 9" width="980" height="762" transform="translate(273 72)" fill="#fff"></rect><text id="Mechanism_of_Web3_Gaming-2" data-name="Mechanism of Web3 Gaming" transform="translate(763 132)" font-size="22" font-family="CenturyGothic-Bold, Century Gothic" font-weight="700"><tspan x="-155" y="0">Mechanism of Web3 Gaming</tspan></text><path id="Path_3" data-name="Path 3" d="M887,440.427c-.341.145-364.866,9.077-416.474-183.526" transform="translate(-20 243.474)" fill="none" stroke="#1b54f8" stroke-width="1.7"></path><path id="Path_4" data-name="Path 4" d="M843.819,440.233c-.305.145-300.828,3.448-320.455-167.963" transform="translate(23 243.641)" fill="none" stroke="#1b54f8" stroke-width="1.7"></path><rect id="Rectangle_1" data-name="Rectangle 1" width="270" height="82" rx="10" transform="translate(867 200)" fill="#051c2c"></rect><rect id="Rectangle_2" data-name="Rectangle 2" width="270" height="82" rx="10" transform="translate(867 423)" fill="#051c2c"></rect><rect id="Rectangle_4" data-name="Rectangle 4" width="270" height="82" rx="10" transform="translate(320 423)" fill="#051c2c"></rect><rect id="Rectangle_3" data-name="Rectangle 3" width="270" height="82" rx="10" transform="translate(867 646)" fill="#051c2c"></rect><path id="Path_1" data-name="Path 1" d="M887,257c-.3-.128-300.444-10.436-397.742,122.244-13.608,17.466-18.558,49.766-18.751,49.572" transform="translate(-20 -16)" fill="none" stroke="#1b54f8" stroke-width="1.7"></path><path id="Path_2" data-name="Path 2" d="M844.8,258.97c-.305-.145-273.1-11.586-319.383,181.018" transform="translate(23 -17.526)" fill="none" stroke="#1b54f8" stroke-width="1.7"></path><path id="Path_5" data-name="Path 5" d="M610,462.753H887.854" transform="translate(-20 -22.399)" fill="none" stroke="#1b54f8" stroke-width="1.7"></path><path id="Path_6" data-name="Path 6" d="M610,462.753H887.854" transform="translate(-20 24.893)" fill="none" stroke="#1b54f8" stroke-width="1.7"></path><path id="Path_7" data-name="Path 7" d="M1022,298V438.947" transform="translate(-20 -16)" fill="none" stroke="#1b54f8" stroke-width="1.7"></path><path id="Path_8" data-name="Path 8" d="M1022,298V438.947" transform="translate(-81 207)" fill="none" stroke="#1b54f8" stroke-width="1.7"></path><path id="Path_9" data-name="Path 9" d="M1022.145,301.749l-.145,137.2" transform="translate(42 207)" fill="none" stroke="#1b54f8" stroke-width="1.7"></path><path id="Polygon_1" data-name="Polygon 1" d="M7.5,0,15,15H0Z" transform="translate(867.804 233.772) rotate(90)" fill="#1b54f8"></path><path id="Polygon_8" data-name="Polygon 8" d="M7.5,0,15,15H0Z" transform="translate(590 447.854) rotate(-90)" fill="#1b54f8"></path><path id="Polygon_9" data-name="Polygon 9" d="M7.5,0,15,15H0Z" transform="translate(867.854 480.146) rotate(90)" fill="#1b54f8"></path><path id="Polygon_5" data-name="Polygon 5" d="M7.5,0,15,15H0Z" transform="translate(948.5 646) rotate(180)" fill="#1b54f8"></path><path id="Polygon_7" data-name="Polygon 7" d="M7.5,0,15,15H0Z" transform="translate(1009.5 423.5) rotate(180)" fill="#1b54f8"></path><path id="Polygon_6" data-name="Polygon 6" d="M7.5,0,15,15H0Z" transform="translate(1057 505)" fill="#1b54f8"></path><path id="Polygon_3" data-name="Polygon 3" d="M7.5,0,15,15H0Z" transform="translate(458.244 423) rotate(180)" fill="#1b54f8"></path><path id="Polygon_4" data-name="Polygon 4" d="M7.5,0,15,15H0Z" transform="translate(539 505)" fill="#1b54f8"></path><path id="Polygon_2" data-name="Polygon 2" d="M7.5,0,15,15H0Z" transform="translate(867.804 676.397) rotate(90)" fill="#1b54f8"></path><text id="Game_developers_publishers" data-name="Game developers /publishers" transform="translate(1003 236)" fill="#fff" font-size="18" font-family="OpenSans-Semibold, Open Sans" font-weight="600"><tspan x="-75" y="0">Game developers</tspan><tspan x="-48" y="24">/publishers</tspan></text><text id="Stake_Vote" data-name="Stake &amp; Vote" transform="translate(729 423)" font-size="18" font-family="OpenSans-Semibold, Open Sans" font-weight="600"><tspan x="-55" y="0">Stake &amp; Vote</tspan></text><text id="Item" transform="translate(1037 351)" font-size="18" font-family="OpenSans-Semibold, Open Sans" font-weight="600"><tspan x="-20" y="0">Item</tspan></text><rect id="Rectangle_5" data-name="Rectangle 5" width="74" height="31" transform="translate(447 328)" fill="#fff"></rect><rect id="Rectangle_7" data-name="Rectangle 7" width="74" height="31" transform="translate(443 544)" fill="#fff"></rect><rect id="Rectangle_6" data-name="Rectangle 6" width="74" height="31" transform="translate(580 292)" fill="#fff"></rect><rect id="Rectangle_8" data-name="Rectangle 8" width="74" height="31" transform="translate(541 576)" fill="#fff"></rect><text id="Dividends" transform="translate(729 519)" font-size="18" font-family="OpenSans-Semibold, Open Sans" font-weight="600"><tspan x="-42" y="0">Dividends</tspan></text><text id="Cash_tx_fees" data-name="Cash &amp; tx fees" transform="translate(886 570)" font-size="18" font-family="OpenSans-Semibold, Open Sans" font-weight="600"><tspan x="-30" y="0">Cash &amp;</tspan><tspan x="-28" y="24">tx fees</tspan></text><text id="Rewards_Play-to-earn_" data-name="Rewards (Play-to-earn)" transform="translate(1089 570)" font-size="18" font-family="OpenSans-Semibold, Open Sans" font-weight="600"><tspan x="0" y="0">Rewards</tspan><tspan x="0" y="24">(Play-to-earn)</tspan></text><text id="LeewayHertz" transform="translate(1131 800)" font-size="18" font-family="Georgia"><tspan x="0" y="0">LeewayHertz</tspan></text><text id="Stake" transform="translate(480 347)" font-size="18" font-family="OpenSans-Semibold, Open Sans" font-weight="600"><tspan x="-24" y="0">Stake</tspan></text><text id="Governs" transform="translate(476 563)" font-size="18" font-family="OpenSans-Semibold, Open Sans" font-weight="600"><tspan x="-36" y="0">Governs</tspan></text><text id="Dividends-2" data-name="Dividends" transform="translate(631 311)" font-size="18" font-family="OpenSans-Semibold, Open Sans" font-weight="600"><tspan x="-42" y="0">Dividends</tspan></text><text id="Revenue" transform="translate(592 595)" font-size="18" font-family="OpenSans-Semibold, Open Sans" font-weight="600"><tspan x="-37" y="0">Revenue</tspan></text><text id="Players" transform="translate(1003 471)" fill="#fff" font-size="18" font-family="OpenSans-Semibold, Open Sans" font-weight="600"><tspan x="-31" y="0">Players</tspan></text><text id="Community_DAO" data-name="Community DAO" transform="translate(455 471)" fill="#fff" font-size="18" font-family="OpenSans-Semibold, Open Sans" font-weight="600"><tspan x="-72" y="0">Community DAO</tspan></text><text id="Game_Ecosystem" data-name="Game Ecosystem" transform="translate(1003 694)" fill="#fff" font-size="18" font-family="OpenSans-Semibold, Open Sans" font-weight="600"><tspan x="-73" y="0">Game Ecosystem</tspan></text></g></svg> 